<svg width="35" height="35" viewBox="0 0 35 35" fill="none" xmlns="http://www.w3.org/2000/svg">
<path fill-rule="evenodd" clip-rule="evenodd" d="M10.1933 0.186768H24.4733C29.9133 0.186768 34.3333 4.53431 34.3333 9.88513V23.931C34.3333 29.2873 29.9188 33.6294 24.4733 33.6294H10.1933C4.75328 33.6294 0.333282 29.2819 0.333282 23.931V9.88513C0.333282 4.52887 4.74776 0.186768 10.1933 0.186768ZM9.85321 3.5309C6.47322 3.5309 3.7332 6.226 3.7332 9.55057V24.2653C3.7332 27.5929 6.47021 30.285 9.85321 30.285H24.8132C28.1932 30.285 30.9332 27.5899 30.9332 24.2653V9.55057C30.9332 6.22303 28.1962 3.5309 24.8132 3.5309H9.85321ZM28.3834 8.12931C28.3834 6.97495 27.432 6.03915 26.2584 6.03915C25.0848 6.03915 24.1334 6.97495 24.1334 8.12931C24.1334 9.28368 25.0848 10.2195 26.2584 10.2195C27.432 10.2195 28.3834 9.28368 28.3834 8.12931ZM17.3334 8.54742C22.0278 8.54742 25.8334 12.2906 25.8334 16.9081C25.8334 21.5255 22.0278 25.2687 17.3334 25.2687C12.639 25.2687 8.83341 21.5255 8.83341 16.9081C8.83341 12.2906 12.639 8.54742 17.3334 8.54742ZM12.2333 16.9079C12.2333 14.1375 14.5167 11.8916 17.3333 11.8916C20.15 11.8916 22.4333 14.1375 22.4333 16.9079C22.4333 19.6784 20.15 21.9243 17.3333 21.9243C14.5167 21.9243 12.2333 19.6784 12.2333 16.9079Z" fill="#40E0D0"/>
</svg>
