<svg width="34" height="34" viewBox="0 0 34 34" fill="none" xmlns="http://www.w3.org/2000/svg">
<mask id="mask0_555_4204" style="mask-type:luminance" maskUnits="userSpaceOnUse" x="0" y="0" width="34" height="34">
<path d="M34 0H0V34H34V0Z" fill="white"/>
</mask>
<g mask="url(#mask0_555_4204)">
<path fill-rule="evenodd" clip-rule="evenodd" d="M34 17C34 26.3888 26.3888 34 17 34C7.61116 34 0 26.3888 0 17C0 7.61116 7.61116 0 17 0C26.3888 0 34 7.61116 34 17ZM23.5916 26.9165H27.8607V18.1463C27.8607 14.4356 25.7573 12.6414 22.8192 12.6414C19.8797 12.6414 18.6426 14.9305 18.6426 14.9305V13.0646H14.5283V26.9165H18.6426V19.6451C18.6426 17.6968 19.5395 16.5374 21.2561 16.5374C22.834 16.5374 23.5916 17.6515 23.5916 19.6451V26.9165ZM7.08301 8.69474C7.08301 10.1063 8.21862 11.2508 9.62004 11.2508C11.0214 11.2508 12.1563 10.1063 12.1563 8.69474C12.1563 7.28319 11.0214 6.13867 9.62004 6.13867C8.21862 6.13867 7.08301 7.28319 7.08301 8.69474ZM11.7857 26.9165H7.49559V13.0646H11.7857V26.9165Z" fill="#40E0D0"/>
</g>
</svg>
