<svg width="35" height="35" viewBox="0 0 35 35" fill="none" xmlns="http://www.w3.org/2000/svg">
<g clip-path="url(#clip0_471_2573)">
<path fill-rule="evenodd" clip-rule="evenodd" d="M17.3333 34.1868C26.7221 34.1868 34.3333 26.5756 34.3333 17.1868C34.3333 7.79793 26.7221 0.186768 17.3333 0.186768C7.94441 0.186768 0.333252 7.79793 0.333252 17.1868C0.333252 26.5756 7.94441 34.1868 17.3333 34.1868Z" fill="#40E0D0"/>
<path fill-rule="evenodd" clip-rule="evenodd" d="M28.1943 27.1035H23.9252V19.8321C23.9252 17.8385 23.1676 16.7244 21.5897 16.7244C19.8731 16.7244 18.9762 17.8838 18.9762 19.8321V27.1035H14.8619V13.2516H18.9762V15.1175C18.9762 15.1175 20.2133 12.8284 23.1528 12.8284C26.0909 12.8284 28.1943 14.6226 28.1943 18.3333V27.1035ZM9.95359 11.4378C8.55217 11.4378 7.41656 10.2933 7.41656 8.88175C7.41656 7.4702 8.55217 6.32568 9.95359 6.32568C11.355 6.32568 12.4899 7.4702 12.4899 8.88175C12.4899 10.2933 11.355 11.4378 9.95359 11.4378ZM7.82914 27.1035H12.1193V13.2516H7.82914V27.1035Z" fill="#1F1528"/>
</g>
<defs>
<clipPath id="clip0_471_2573">
<rect width="34" height="34" fill="white" transform="translate(0.333252 0.186768)"/>
</clipPath>
</defs>
</svg>
