<svg width="32" height="25" viewBox="0 0 32 25" xmlns="http://www.w3.org/2000/svg">
<path d="M0.106626 20.2304C3.30663 17.9904 4.90663 14.5237 4.90663 9.83036C4.90663 7.21703 4.39996 4.47036 3.38663 1.59036L12.5066 0.310361C13.1466 2.87036 13.4666 5.24369 13.4666 7.43036C13.4666 11.2704 12.5333 14.577 10.6666 17.3504C8.85329 20.177 6.31996 22.4437 3.06663 24.1504L0.106626 20.2304ZM17.7066 20.2304C20.9066 17.9904 22.5066 14.5237 22.5066 9.83036C22.5066 7.21703 22 4.47036 20.9866 1.59036L30.1066 0.310361C30.7466 2.87036 31.0666 5.24369 31.0666 7.43036C31.0666 11.2704 30.1333 14.577 28.2666 17.3504C26.4533 20.177 23.92 22.4437 20.6666 24.1504L17.7066 20.2304Z" fill="#1f1528"/>
</svg>
