<svg width="35" height="35" viewBox="0 0 35 35" fill="none" xmlns="http://www.w3.org/2000/svg">
<path fill-rule="evenodd" clip-rule="evenodd" d="M34.0613 12.3756C33.9593 11.0379 33.8063 9.98449 33.5853 9.19859C33.1603 7.69367 32.1743 6.72384 30.6443 6.30581C28.8933 5.83761 24.4563 5.57007 17.3333 5.57007L14.6303 5.6704C12.7603 5.6704 10.7373 5.72056 8.52725 5.83761C6.28325 5.93794 4.82125 6.08843 4.02225 6.30581C2.49225 6.72384 1.50625 7.69367 1.08125 9.19859C0.605252 10.9209 0.333252 13.613 0.333252 17.275L0.435252 18.6796C0.435252 19.6829 0.486252 20.8366 0.605252 22.1743C0.707252 23.512 0.860252 24.5655 1.08125 25.3514C1.50625 26.8563 2.49225 27.8261 4.02225 28.2442C5.77325 28.7124 10.2103 28.9799 17.3333 28.9799L20.0363 28.8796C21.9063 28.8796 23.9293 28.8294 26.1393 28.7124C28.3833 28.612 29.8453 28.4615 30.6443 28.2442C32.1743 27.8261 33.1603 26.8563 33.5853 25.3514C34.0613 23.6291 34.3333 20.937 34.3333 17.275L34.2313 15.8704C34.2313 14.8671 34.1803 13.7133 34.0613 12.3756ZM22.7562 17.275L13.9332 22.2914V12.2586L22.7562 17.275Z" fill="#40E0D0"/>
</svg>
